<?xml version="1.0" encoding="UTF-8" standalone="no"?>
<!-- Created with Inkscape (http://www.inkscape.org/) -->

<svg
   xmlns:dc="http://purl.org/dc/elements/1.1/"
   xmlns:cc="http://creativecommons.org/ns#"
   xmlns:rdf="http://www.w3.org/1999/02/22-rdf-syntax-ns#"
   xmlns:svg="http://www.w3.org/2000/svg"
   xmlns="http://www.w3.org/2000/svg"
   xmlns:sodipodi="http://sodipodi.sourceforge.net/DTD/sodipodi-0.dtd"
   xmlns:inkscape="http://www.inkscape.org/namespaces/inkscape"
   id="svg3336"
   version="1.1"
   inkscape:version="0.91 r13725"
   xml:space="preserve"
   width="1800"
   height="1080"
   viewBox="0 0 1800 1080"
   sodipodi:docname="Plates-inkscape.svg"><metadata
     id="metadata3342"><rdf:RDF><cc:Work
         rdf:about=""><dc:format>image/svg+xml</dc:format><dc:type
           rdf:resource="http://purl.org/dc/dcmitype/StillImage" /><dc:title></dc:title></cc:Work></rdf:RDF></metadata><defs
     id="defs3340" /><sodipodi:namedview
     pagecolor="#ffffff"
     bordercolor="#666666"
     borderopacity="1"
     objecttolerance="10"
     gridtolerance="10"
     guidetolerance="10"
     inkscape:pageopacity="0"
     inkscape:pageshadow="2"
     inkscape:window-width="1920"
     inkscape:window-height="1001"
     id="namedview3338"
     showgrid="false"
     showguides="true"
     inkscape:zoom="0.74814815"
     inkscape:cx="900"
     inkscape:cy="540"
     inkscape:window-x="-9"
     inkscape:window-y="-9"
     inkscape:window-maximized="1"
     inkscape:current-layer="g3344" /><g
     id="g3344"
     inkscape:groupmode="layer"
     inkscape:label="Plates"
     transform="matrix(1.25,0,0,-1.25,0,1080)"><g
       id="g3346"
       transform="translate(69.4,798.2)"><path
         d="M 0,0 1.9,0.3 3.6,1.2 5,2.6 5.8,4.3 6.1,6.2 5.8,8.1 5,9.8 3.6,11.1 1.9,12 0,12.3 -1.9,12 -3.6,11.1 -5,9.8 -5.8,8.1 -6.1,6.2 -5.8,4.3 -5,2.6 -3.6,1.2 -1.9,0.3 0,0 M 216,12.3 214.1,12 212.4,11.1 211,9.8 210.2,8.1 209.9,6.2 210.2,4.3 211,2.6 212.4,1.2 214.1,0.3 216,0 l 1.9,0.3 1.7,0.9 1.4,1.4 0.8,1.7 0.3,1.9 -0.3,1.9 -0.8,1.7 -1.4,1.3 -1.7,0.9 -1.9,0.3 m -108,-756 -1.9,-0.3 -1.7,-0.9 -1.4,-1.3 -0.8,-1.7 -0.3,-1.9 0.3,-1.9 0.8,-1.7 1.4,-1.4 1.7,-0.9 1.9,-0.3 1.9,0.3 1.7,0.9 1.4,1.4 0.8,1.7 0.3,1.9 -0.3,1.9 -0.8,1.7 -1.4,1.3 -1.7,0.9 -1.9,0.3 m 108,378 -1.9,-0.3 -1.7,-0.9 -1.4,-1.3 -0.8,-1.7 -0.3,-1.9 0.3,-1.9 0.8,-1.7 1.4,-1.4 1.7,-0.9 1.9,-0.3 1.9,0.3 1.7,0.9 1.4,1.4 0.8,1.7 0.3,1.9 -0.3,1.9 -0.8,1.7 -1.4,1.3 -1.7,0.9 -1.9,0.3 m -216,-189 -1.9,-0.3 -1.7,-0.9 -1.4,-1.3 -0.8,-1.7 -0.3,-1.9 0.3,-1.9 0.8,-1.7 1.4,-1.4 1.7,-0.9 1.9,-0.3 1.9,0.3 1.7,0.9 1.4,1.4 0.8,1.7 0.3,1.9 -0.3,1.9 -0.8,1.7 -1.4,1.3 -1.7,0.9 -1.9,0.3 M 108,0 l 1.9,0.3 1.7,0.9 1.4,1.4 0.8,1.7 0.3,1.9 -0.3,1.9 -0.8,1.7 -1.4,1.3 L 109.9,12 108,12.3 106.1,12 104.4,11.1 103,9.8 102.2,8.1 101.9,6.2 102.2,4.3 103,2.6 104.4,1.2 106.1,0.3 108,0 M 0,-189 l 1.9,0.3 1.7,0.9 1.4,1.4 0.8,1.7 0.3,1.9 -0.3,1.9 -0.8,1.7 -1.4,1.3 -1.7,0.9 -1.9,0.3 -1.9,-0.3 -1.7,-0.9 -1.4,-1.3 -0.8,-1.7 -0.3,-1.9 0.3,-1.9 0.8,-1.7 1.4,-1.4 1.7,-0.9 1.9,-0.3 m 0,-189 1.9,0.3 1.7,0.9 1.4,1.4 0.8,1.7 0.3,1.9 -0.3,1.9 -0.8,1.7 -1.4,1.3 -1.7,0.9 -1.9,0.3 -1.9,-0.3 -1.7,-0.9 -1.4,-1.3 -0.8,-1.7 -0.3,-1.9 0.3,-1.9 0.8,-1.7 1.4,-1.4 1.7,-0.9 1.9,-0.3 m 0,-365.7 -1.9,-0.3 -1.7,-0.9 -1.4,-1.3 -0.8,-1.7 -0.3,-1.9 0.3,-1.9 0.8,-1.7 1.4,-1.4 1.7,-0.9 1.9,-0.3 1.9,0.3 1.7,0.9 1.4,1.4 0.8,1.7 0.3,1.9 -0.3,1.9 -0.8,1.7 -1.4,1.3 -1.7,0.9 -1.9,0.3 m 216,-12.3 1.9,0.3 1.7,0.9 1.4,1.4 0.8,1.7 0.3,1.9 -0.3,1.9 -0.8,1.7 -1.4,1.3 -1.7,0.9 -1.9,0.3 -1.9,-0.3 -1.7,-0.9 -1.4,-1.3 -0.8,-1.7 -0.3,-1.9 0.3,-1.9 0.8,-1.7 1.4,-1.4 1.7,-0.9 1.9,-0.3 m 0,189 1.9,0.3 1.7,0.9 1.4,1.4 0.8,1.7 0.3,1.9 -0.3,1.9 -0.8,1.7 -1.4,1.3 -1.7,0.9 -1.9,0.3 -1.9,-0.3 -1.7,-0.9 -1.4,-1.3 -0.8,-1.7 -0.3,-1.9 0.3,-1.9 0.8,-1.7 1.4,-1.4 1.7,-0.9 1.9,-0.3 m 0,390.3 -1.9,-0.3 -1.7,-0.9 -1.4,-1.3 -0.8,-1.7 -0.3,-1.9 0.3,-1.9 0.8,-1.7 1.4,-1.4 1.7,-0.9 1.9,-0.3 1.9,0.3 1.7,0.9 1.4,1.4 0.8,1.7 0.3,1.9 -0.3,1.9 -0.8,1.7 -1.4,1.3 -1.7,0.9 -1.9,0.3 M 48.5,-17 l 1.7,0.3 1.6,0.8 1.2,1.3 0.7,1.7 0.1,1.7 -0.4,1.7 -1,1.5 -1.4,1.1 -1.7,0.6 -1.7,0 -1.7,-0.6 -1.4,-1.1 -1,-1.5 -0.4,-1.7 0.1,-1.7 0.7,-1.7 1.2,-1.3 1.6,-0.8 1.8,-0.3 m 0,-223.9 1.7,0.2 1.6,0.9 1.2,1.3 0.7,1.6 0.1,1.8 -0.4,1.7 -1,1.5 -1.4,1.1 -1.7,0.6 -1.7,0 -1.7,-0.6 -1.4,-1.1 -1,-1.5 -0.4,-1.7 0.1,-1.8 0.7,-1.6 1.2,-1.3 1.6,-0.9 1.8,-0.2 m 119,10.8 -1.7,-0.3 -1.6,-0.9 -1.2,-1.3 -0.7,-1.6 -0.1,-1.8 0.4,-1.7 1,-1.5 1.4,-1.1 1.7,-0.6 1.7,0 1.7,0.6 1.4,1.1 1,1.5 0.4,1.7 -0.1,1.8 -0.7,1.6 -1.2,1.3 -1.6,0.9 -1.8,0.3 m 0,223.9 -1.7,-0.3 -1.6,-0.9 -1.2,-1.3 -0.7,-1.6 -0.1,-1.8 0.4,-1.7 1,-1.5 1.4,-1.1 1.7,-0.6 1.7,0 1.7,0.6 1.4,1.1 1,1.5 0.4,1.7 -0.1,1.8 -0.7,1.6 -1.2,1.3 -1.6,0.9 -1.8,0.3 m -100.2,-38.7 1.8,0.3 1.6,0.8 1.2,1.3 0.7,1.7 0.1,1.7 -0.4,1.8 -1,1.4 -1.4,1.1 -1.7,0.6 -1.7,0 -1.7,-0.6 -1.4,-1.1 -1,-1.4 -0.4,-1.8 0.1,-1.7 0.7,-1.7 1.2,-1.3 1.6,-0.8 1.7,-0.3 m 85.1,0 1.7,0.3 1.6,0.8 1.2,1.3 0.7,1.7 0.2,1.7 -0.5,1.8 -0.9,1.4 -1.5,1.1 -1.6,0.6 -1.8,0 -1.7,-0.6 -1.4,-1.1 -1,-1.4 -0.4,-1.8 0.1,-1.7 0.8,-1.7 1.2,-1.3 1.5,-0.8 1.8,-0.3 m 0,-85 1.7,0.2 1.6,0.9 1.2,1.3 0.7,1.6 0.2,1.8 -0.5,1.7 -0.9,1.5 -1.5,1.1 -1.6,0.6 -1.8,0 -1.7,-0.6 -1.4,-1.1 -1,-1.5 -0.4,-1.7 0.1,-1.8 0.8,-1.6 1.2,-1.3 1.5,-0.9 1.8,-0.2 m -85.1,0 1.8,0.2 1.6,0.9 1.2,1.3 0.7,1.6 0.1,1.8 -0.4,1.7 -1,1.5 -1.4,1.1 -1.7,0.6 -1.7,0 -1.7,-0.6 -1.4,-1.1 -1,-1.5 -0.4,-1.7 0.1,-1.8 0.7,-1.6 1.2,-1.3 1.6,-0.9 1.7,-0.2 m 81,-596.4 1.8,0.3 1.5,0.8 1.2,1.3 0.8,1.7 0.1,1.7 -0.4,1.7 -1,1.5 -1.4,1.1 -1.7,0.6 -1.8,0 -1.6,-0.6 -1.5,-1.1 -0.9,-1.5 -0.5,-1.7 0.2,-1.7 0.7,-1.7 1.2,-1.3 1.6,-0.8 1.7,-0.3 m 0,113.7 1.8,0.3 1.5,0.9 1.2,1.3 0.8,1.6 0.1,1.8 -0.4,1.7 -1,1.5 -1.4,1.1 -1.7,0.6 -1.8,0 -1.6,-0.6 -1.5,-1.1 -0.9,-1.5 -0.5,-1.7 0.2,-1.8 0.7,-1.6 1.2,-1.3 1.6,-0.9 1.7,-0.3 m 56.9,-56.8 1.8,0.3 1.5,0.8 1.2,1.3 0.7,1.6 0.2,1.8 -0.5,1.7 -0.9,1.5 -1.4,1.1 -1.7,0.6 -1.8,0 -1.7,-0.6 -1.4,-1.1 -0.9,-1.5 -0.5,-1.7 0.2,-1.8 0.7,-1.6 1.2,-1.3 1.5,-0.8 1.8,-0.3 m -145.8,352.8 1.4,0.3 1.1,0.8 0.8,1.2 0.3,1.3 -0.3,1.4 -0.8,1.2 -1.1,0.8 -1.4,0.2 -1.4,-0.2 -1.1,-0.8 -0.8,-1.2 -0.3,-1.4 0.3,-1.3 0.8,-1.2 1.1,-0.8 1.4,-0.3 m 0,-241.2 1.4,0.3 1.1,0.8 0.8,1.2 0.3,1.3 -0.3,1.4 -0.8,1.2 -1.1,0.8 -1.4,0.2 -1.4,-0.2 -1.1,-0.8 -0.8,-1.2 -0.3,-1.4 0.3,-1.3 0.8,-1.2 1.1,-0.8 1.4,-0.3 m 97.2,0 1.4,0.3 1.1,0.8 0.8,1.2 0.3,1.3 -0.3,1.4 -0.8,1.2 -1.1,0.8 -1.4,0.2 -1.4,-0.2 -1.1,-0.8 -0.8,-1.2 -0.3,-1.4 0.3,-1.3 0.8,-1.2 1.1,-0.8 1.4,-0.3 m 0,241.2 1.4,0.3 1.1,0.8 0.8,1.2 0.3,1.3 -0.3,1.4 -0.8,1.2 -1.1,0.8 -1.4,0.2 -1.4,-0.2 -1.1,-0.8 -0.8,-1.2 -0.3,-1.4 0.3,-1.3 0.8,-1.2 1.1,-0.8 1.4,-0.3 m 18,-55.3 0,-144 m 0,0 0.3,-2 0.8,-1.8 1.4,-1.6 1.7,-1.1 2,-0.6 2,0 2,0.6 1.7,1.1 1.4,1.6 0.8,1.8 0.3,2 m 0,0 0,144 m 0,0 -0.3,2.1 -0.8,1.8 -1.4,1.6 -1.7,1.1 -2,0.6 -2,0 -2,-0.6 -1.7,-1.1 -1.4,-1.6 -0.8,-1.8 -0.3,-2.1 m -147.6,0 0,-144 m 0,0 0.3,-2 0.8,-1.8 1.4,-1.6 1.7,-1.1 2,-0.6 2,0 2,0.6 1.7,1.1 1.4,1.6 0.8,1.8 0.3,2 m 0,0 0,144 m 0,0 -0.3,2.1 -0.8,1.8 -1.4,1.6 -1.7,1.1 -2,0.6 -2,0 -2,-0.6 -1.7,-1.1 -1.4,-1.6 -0.8,-1.8 -0.3,-2.1 m 124.4,-382.6 1.9,0.3 1.7,0.9 1.4,1.3 0.8,1.7 0.3,1.9 -0.3,1.9 -0.8,1.7 -1.4,1.4 -1.7,0.9 -1.9,0.3 -1.9,-0.3 -1.7,-0.9 -1.3,-1.4 -0.9,-1.7 -0.3,-1.9 0.3,-1.9 0.9,-1.7 1.3,-1.3 1.7,-0.9 1.9,-0.3 m -122.4,0 1.9,0.3 1.7,0.9 1.4,1.3 0.8,1.7 0.3,1.9 -0.3,1.9 -0.8,1.7 -1.4,1.4 -1.7,0.9 -1.9,0.3 -1.9,-0.3 -1.7,-0.9 -1.3,-1.4 -0.9,-1.7 -0.3,-1.9 0.3,-1.9 0.9,-1.7 1.3,-1.3 1.7,-0.9 1.9,-0.3 m -38,778.7 234,0 m 0,0 1.8,-0.2 1.6,-0.5 1.6,-0.9 1.4,-1.1 1.1,-1.3 0.8,-1.6 0.5,-1.7 0.2,-1.7 m 0,0 0,-774 m -9,-9 1.8,0.1 1.6,0.5 1.6,0.9 1.4,1.1 1.1,1.4 0.8,1.5 0.5,1.7 0.2,1.8 m -243,-9 234,0 m -243,9 0.2,-1.8 0.5,-1.7 0.8,-1.5 1.1,-1.4 1.4,-1.1 1.6,-0.9 1.6,-0.5 1.8,-0.1 m -9,783 0,-774 m 9,783 -1.8,-0.2 -1.6,-0.5 -1.6,-0.9 -1.4,-1.1 -1.1,-1.3 -0.8,-1.6 -0.5,-1.7 -0.2,-1.7"
         style="fill:none;stroke:#000000;stroke-width:0.70899999;stroke-linecap:round;stroke-linejoin:round;stroke-miterlimit:10;stroke-dasharray:none;stroke-opacity:1"
         id="path3348"
         inkscape:connector-curvature="0" /></g><g
       id="g3350"
       transform="translate(973.5,103.7)"><path
         d="m 0,0 -0.5,-5.6 -1.3,-5.5 -2.2,-5.2 -2.9,-4.8 -3.7,-4.3 -4.3,-3.7 -4.8,-3 -5.2,-2.1 -5.5,-1.3 L -36,-36 M 0,0 0,648 m -36,36 5.6,-0.4 5.5,-1.3 5.2,-2.2 4.8,-3 4.3,-3.6 3.7,-4.3 2.9,-4.8 2.2,-5.3 1.3,-5.4 L 0,648 m -36,36 -108,0 m -36,-36 0.4,5.7 1.3,5.4 2.2,5.3 2.9,4.8 3.7,4.3 4.3,3.6 4.8,3 5.2,2.2 5.5,1.3 5.7,0.4 m -36,-36 0,-648 m 36,-36 -5.7,0.5 -5.5,1.3 -5.2,2.1 -4.8,3 -4.3,3.7 -3.7,4.3 -2.9,4.8 -2.2,5.2 -1.3,5.5 -0.4,5.6 m 36,-36 108,0 m -486.6,18 -4.5,3.8 -5.1,3 -5.5,2.3 -5.7,1.3 -5.9,0.4 -5.9,-0.5 -5.7,-1.4 -5.5,-2.3 -5,-3.1 -4.5,-3.8 -3.8,-4.5 -3.1,-5.1 -2.2,-5.4 -1.4,-5.8 -0.4,-5.9 0.4,-5.9 1.4,-5.7 2.2,-5.5 3.1,-5 3.8,-4.5 4.5,-3.9 5,-3.1 5.5,-2.3 5.7,-1.4 5.9,-0.5 5.9,0.4 5.7,1.4 5.5,2.2 5.1,3 4.5,3.8 m 288.6,54 -288.6,0 m 306.6,18 -0.4,-3.5 -1,-3.4 -1.7,-3.1 -2.2,-2.7 -2.7,-2.2 -3.2,-1.7 -3.3,-1 -3.5,-0.4 m 18,666 0,-648 m -18,666 3.5,-0.3 3.3,-1.1 3.2,-1.6 2.7,-2.3 2.2,-2.7 1.7,-3.1 1,-3.4 0.4,-3.5 m -306.6,18 288.6,0 m -288.6,54 -4.5,3.8 -5.1,3 -5.5,2.3 -5.7,1.3 -5.9,0.4 -5.9,-0.5 -5.7,-1.4 -5.5,-2.3 -5,-3.1 -4.5,-3.8 -3.8,-4.5 -3.1,-5.1 -2.2,-5.4 -1.4,-5.8 -0.4,-5.9 0.4,-5.9 1.4,-5.7 2.2,-5.5 3.1,-5 3.8,-4.5 4.5,-3.9 5,-3.1 5.5,-2.3 5.7,-1.4 5.9,-0.5 5.9,0.4 5.7,1.4 5.5,2.2 5.1,3 4.5,3.8 m 865.1,54 -865.1,0 m 865.1,-54 4.5,-3.8 5.1,-3 5.5,-2.2 5.7,-1.4 5.9,-0.4 5.9,0.5 5.7,1.4 5.5,2.3 5,3.1 4.5,3.9 3.8,4.5 3.1,5 2.2,5.5 1.4,5.7 0.5,5.9 -0.5,5.9 -1.4,5.8 -2.2,5.4 -3.1,5.1 -3.8,4.5 -4.5,3.8 -5,3.1 -5.5,2.3 -5.7,1.4 -5.9,0.5 -5.9,-0.4 -5.7,-1.3 -5.5,-2.3 -5.1,-3 -4.5,-3.8 M 54,666 342.5,666 M 36,648 l 0.3,3.5 1,3.4 1.7,3.1 2.2,2.7 2.8,2.3 3.1,1.6 3.3,1.1 3.6,0.3 M 36,0 36,648 m 18,-666 -3.6,0.4 -3.3,1 -3.1,1.7 -2.8,2.2 -2.2,2.7 -1.7,3.1 -1,3.4 L 36,0 M 342.5,-18 54,-18 m 288.5,-54 4.5,-3.8 5.1,-3 5.5,-2.2 5.7,-1.4 5.9,-0.4 5.9,0.5 5.7,1.4 5.5,2.3 5,3.1 4.5,3.9 3.8,4.5 3.1,5 2.2,5.5 1.4,5.7 0.5,5.9 -0.5,5.9 -1.4,5.8 -2.2,5.4 -3.1,5.1 -3.8,4.5 -4.5,3.8 -5,3.1 -5.5,2.3 -5.7,1.4 -5.9,0.5 -5.9,-0.4 -5.7,-1.3 -5.5,-2.3 -5.1,-3 -4.5,-3.8 m -865.1,-54 865.1,0 m 26.5,757.9 2.5,0.5 2.2,1.4 1.6,2.1 0.7,2.5 -0.2,2.6 -1.2,2.3 -1.9,1.7 -2.4,1 -2.6,0 -2.5,-1 -1.9,-1.7 -1.2,-2.3 -0.2,-2.6 0.7,-2.5 1.6,-2.1 2.2,-1.4 2.6,-0.5 m -888.3,-727.3 -5.7,0 m 0,0 -1.3,-0.3 -1.2,-0.8 -0.7,-1.1 -0.3,-1.4 0.3,-1.3 0.7,-1.2 1.2,-0.8 1.3,-0.2 m 0,0 5.7,0 m 0,0 1.4,0.2 1.1,0.8 0.8,1.2 0.3,1.3 -0.3,1.4 -0.8,1.1 -1.1,0.8 -1.4,0.3 m -59.5,-7.1 5.7,0 m 0,0 1.3,0.2 1.2,0.8 0.7,1.2 0.3,1.3 -0.3,1.4 -0.7,1.1 -1.2,0.8 -1.3,0.3 m 0,0 -5.7,0 m 0,0 -1.4,-0.3 -1.1,-0.8 -0.8,-1.1 -0.3,-1.4 0.3,-1.3 0.8,-1.2 1.1,-0.8 1.4,-0.2 m 33.3,-22 0,5.7 m 0,0 -0.3,1.3 -0.7,1.2 -1.2,0.8 -1.3,0.2 -1.4,-0.2 -1.2,-0.8 -0.7,-1.2 -0.3,-1.3 m 0,0 0,-5.7 m 0,0 0.3,-1.3 0.7,-1.2 1.2,-0.8 1.4,-0.2 1.3,0.2 1.2,0.8 0.7,1.2 0.3,1.3 m 918,738 0,5.7 m 0,0 -0.3,1.3 -0.7,1.2 -1.2,0.8 -1.3,0.2 -1.4,-0.2 -1.2,-0.8 -0.7,-1.2 -0.3,-1.3 m 0,0 0,-5.7 m 0,0 0.3,-1.3 0.7,-1.2 1.2,-0.8 1.4,-0.2 1.3,0.2 1.2,0.8 0.7,1.2 0.3,1.3 m -7.1,51 0,-5.6 m 0,0 0.3,-1.4 0.7,-1.1 1.2,-0.8 1.4,-0.3 1.3,0.3 1.2,0.8 0.7,1.1 0.3,1.4 m 0,0 0,5.6 m 0,0 -0.3,1.4 -0.7,1.1 -1.2,0.8 -1.3,0.3 -1.4,-0.3 -1.2,-0.8 -0.7,-1.1 -0.3,-1.4 m 33.3,-21.9 -5.7,0 m 0,0 -1.3,-0.3 -1.2,-0.8 -0.7,-1.1 -0.3,-1.4 0.3,-1.3 0.7,-1.2 1.2,-0.8 1.3,-0.2 m 0,0 5.7,0 m 0,0 1.4,0.2 1.1,0.8 0.8,1.2 0.3,1.3 -0.3,1.4 -0.8,1.1 -1.1,0.8 -1.4,0.3 m -59.5,-7.1 5.7,0 m 0,0 1.3,0.2 1.2,0.8 0.7,1.2 0.3,1.3 -0.3,1.4 -0.7,1.1 -1.2,0.8 -1.3,0.3 m 0,0 -5.7,0 m 0,0 -1.4,-0.3 -1.1,-0.8 -0.8,-1.1 -0.3,-1.4 0.3,-1.3 0.8,-1.2 1.1,-0.8 1.4,-0.2 m -884.7,-22 0,5.7 m 0,0 -0.3,1.3 -0.7,1.2 -1.2,0.8 -1.3,0.2 -1.4,-0.2 -1.2,-0.8 -0.7,-1.2 -0.3,-1.3 m 0,0 0,-5.7 m 0,0 0.3,-1.3 0.7,-1.2 1.2,-0.8 1.4,-0.2 1.3,0.2 1.2,0.8 0.7,1.2 0.3,1.3 m -7.1,51 0,-5.6 m 0,0 0.3,-1.4 0.7,-1.1 1.2,-0.8 1.4,-0.3 1.3,0.3 1.2,0.8 0.7,1.1 0.3,1.4 m 0,0 0,5.6 m 0,0 -0.3,1.4 -0.7,1.1 -1.2,0.8 -1.3,0.3 -1.4,-0.3 -1.2,-0.8 -0.7,-1.1 -0.3,-1.4 m -26.2,-29 5.7,0 m 0,0 1.3,0.2 1.2,0.8 0.7,1.2 0.3,1.3 -0.3,1.4 -0.7,1.1 -1.2,0.8 -1.3,0.3 m 0,0 -5.7,0 m 0,0 -1.4,-0.3 -1.1,-0.8 -0.8,-1.1 -0.3,-1.4 0.3,-1.3 0.8,-1.2 1.1,-0.8 1.4,-0.2 m 59.5,7.1 -5.7,0 m 0,0 -1.3,-0.3 -1.2,-0.8 -0.7,-1.1 -0.3,-1.4 0.3,-1.3 0.7,-1.2 1.2,-0.8 1.3,-0.2 m 0,0 5.7,0 m 0,0 1.4,0.2 1.1,0.8 0.8,1.2 0.3,1.3 -0.3,1.4 -0.8,1.1 -1.1,0.8 -1.4,0.3 m -33.3,-716.1 0,-5.6 m 0,0 0.3,-1.4 0.7,-1.1 1.2,-0.8 1.4,-0.3 1.3,0.3 1.2,0.8 0.7,1.1 0.3,1.4 m 0,0 0,5.6 m 0,0 -0.3,1.4 -0.7,1.1 -1.2,0.8 -1.3,0.3 -1.4,-0.3 -1.2,-0.8 -0.7,-1.1 -0.3,-1.4 m 3.6,-32.6 2.5,0.5 2.2,1.4 1.6,2.1 0.7,2.5 -0.2,2.6 -1.2,2.3 -1.9,1.7 -2.4,1 -2.6,0 -2.5,-1 -1.9,-1.7 -1.2,-2.3 -0.2,-2.6 0.7,-2.5 1.6,-2.1 2.2,-1.4 2.6,-0.5 m 918,14.2 -2.6,-0.5 -2.2,-1.3 -1.6,-2.1 -0.7,-2.5 0.2,-2.6 1.2,-2.4 1.9,-1.7 2.5,-0.9 2.6,0 2.4,0.9 1.9,1.7 1.2,2.4 0.2,2.6 -0.7,2.5 -1.6,2.1 -2.2,1.3 -2.5,0.5 m -3.6,18.4 0,-5.6 m 0,0 0.3,-1.4 0.7,-1.1 1.2,-0.8 1.4,-0.3 1.3,0.3 1.2,0.8 0.7,1.1 0.3,1.4 m 0,0 0,5.6 m 0,0 -0.3,1.4 -0.7,1.1 -1.2,0.8 -1.3,0.3 -1.4,-0.3 -1.2,-0.8 -0.7,-1.1 -0.3,-1.4 m 33.3,-21.9 -5.7,0 m 0,0 -1.3,-0.3 -1.2,-0.8 -0.7,-1.1 -0.3,-1.4 0.3,-1.3 0.7,-1.2 1.2,-0.8 1.3,-0.2 m 0,0 5.7,0 m 0,0 1.4,0.2 1.1,0.8 0.8,1.2 0.3,1.3 -0.3,1.4 -0.8,1.1 -1.1,0.8 -1.4,0.3 m -26.2,-29.1 0,5.7 m 0,0 -0.3,1.3 -0.7,1.2 -1.2,0.8 -1.3,0.2 -1.4,-0.2 -1.2,-0.8 -0.7,-1.2 -0.3,-1.3 m 0,0 0,-5.7 m 0,0 0.3,-1.3 0.7,-1.2 1.2,-0.8 1.4,-0.2 1.3,0.2 1.2,0.8 0.7,1.2 0.3,1.3 m -33.3,22 5.7,0 m 0,0 1.3,0.2 1.2,0.8 0.7,1.2 0.3,1.3 -0.3,1.4 -0.7,1.1 -1.2,0.8 -1.3,0.3 m 0,0 -5.7,0 m 0,0 -1.4,-0.3 -1.1,-0.8 -0.8,-1.1 -0.3,-1.4 0.3,-1.3 0.8,-1.2 1.1,-0.8 1.4,-0.2 m -888.2,748.6 -2.6,-0.5 -2.2,-1.3 -1.6,-2.1 -0.7,-2.5 0.2,-2.6 1.2,-2.4 1.9,-1.7 2.5,-0.9 2.6,0 2.4,0.9 1.9,1.7 1.2,2.4 0.2,2.6 -0.7,2.5 -1.6,2.1 -2.2,1.3 -2.5,0.5 m 351,-4.2 2.3,0.5 2,1.3 1.3,2 0.5,2.3 -0.5,2.4 -1.3,1.9 -2,1.4 -2.3,0.4 -2.4,-0.4 -2,-1.4 -1.3,-1.9 -0.5,-2.4 0.5,-2.3 1.3,-2 2,-1.3 2.4,-0.5 m 108,-743.8 -2.4,-0.4 -2,-1.4 -1.3,-1.9 -0.5,-2.4 0.5,-2.3 1.3,-2 2,-1.3 2.4,-0.5 2.3,0.5 2,1.3 1.3,2 0.5,2.3 -0.5,2.4 -1.3,1.9 -2,1.4 -2.3,0.4 m 0,743.8 2.3,0.5 2,1.3 1.3,2 0.5,2.3 -0.5,2.4 -1.3,1.9 -2,1.4 -2.3,0.4 -2.4,-0.4 -2,-1.4 -1.3,-1.9 -0.5,-2.4 0.5,-2.3 1.3,-2 2,-1.3 2.4,-0.5 m 108,12.2 -2.4,-0.4 -2,-1.4 -1.3,-1.9 -0.5,-2.4 0.5,-2.3 1.3,-2 2,-1.3 2.4,-0.5 2.3,0.5 2,1.3 1.3,2 0.5,2.3 -0.5,2.4 -1.3,1.9 -2,1.4 -2.3,0.4 m 0,-189 -2.4,-0.4 -2,-1.4 -1.3,-1.9 -0.5,-2.4 0.5,-2.3 1.3,-2 2,-1.3 2.4,-0.5 2.3,0.5 2,1.3 1.3,2 0.5,2.3 -0.5,2.4 -1.3,1.9 -2,1.4 -2.3,0.4 m 0,-189 -2.4,-0.4 -2,-1.4 -1.3,-1.9 -0.5,-2.4 0.5,-2.3 1.3,-2 2,-1.3 2.4,-0.5 2.3,0.5 2,1.3 1.3,2 0.5,2.3 -0.5,2.4 -1.3,1.9 -2,1.4 -2.3,0.4 m 0,-189 -2.4,-0.4 -2,-1.4 -1.3,-1.9 -0.5,-2.4 0.5,-2.3 1.3,-2 2,-1.3 2.4,-0.5 2.3,0.5 2,1.3 1.3,2 0.5,2.3 -0.5,2.4 -1.3,1.9 -2,1.4 -2.3,0.4 m 0,-189 -2.4,-0.4 -2,-1.4 -1.3,-1.9 -0.5,-2.4 0.5,-2.3 1.3,-2 2,-1.3 2.4,-0.5 2.3,0.5 2,1.3 1.3,2 0.5,2.3 -0.5,2.4 -1.3,1.9 -2,1.4 -2.3,0.4 m -216,-12.2 2.3,0.5 2,1.3 1.3,2 0.5,2.3 -0.5,2.4 -1.3,1.9 -2,1.4 -2.3,0.4 -2.4,-0.4 -2,-1.4 -1.3,-1.9 -0.5,-2.4 0.5,-2.3 1.3,-2 2,-1.3 2.4,-0.5 m 0,189 2.3,0.5 2,1.3 1.3,2 0.5,2.3 -0.5,2.4 -1.3,1.9 -2,1.4 -2.3,0.4 -2.4,-0.4 -2,-1.4 -1.3,-1.9 -0.5,-2.4 0.5,-2.3 1.3,-2 2,-1.3 2.4,-0.5 m 0,189 2.3,0.5 2,1.3 1.3,2 0.5,2.3 -0.5,2.4 -1.3,1.9 -2,1.4 -2.3,0.4 -2.4,-0.4 -2,-1.4 -1.3,-1.9 -0.5,-2.4 0.5,-2.3 1.3,-2 2,-1.3 2.4,-0.5 m 0,189 2.3,0.5 2,1.3 1.3,2 0.5,2.3 -0.5,2.4 -1.3,1.9 -2,1.4 -2.3,0.4 -2.4,-0.4 -2,-1.4 -1.3,-1.9 -0.5,-2.4 0.5,-2.3 1.3,-2 2,-1.3 2.4,-0.5"
         style="fill:none;stroke:#000000;stroke-width:0.70899999;stroke-linecap:round;stroke-linejoin:round;stroke-miterlimit:10;stroke-dasharray:none;stroke-opacity:1"
         id="path3352"
         inkscape:connector-curvature="0" /></g></g></svg>