<?xml version="1.0" encoding="UTF-8" standalone="no"?>
<!-- Created with Inkscape (http://www.inkscape.org/) -->

<svg
   xmlns:dc="http://purl.org/dc/elements/1.1/"
   xmlns:cc="http://creativecommons.org/ns#"
   xmlns:rdf="http://www.w3.org/1999/02/22-rdf-syntax-ns#"
   xmlns:svg="http://www.w3.org/2000/svg"
   xmlns="http://www.w3.org/2000/svg"
   xmlns:sodipodi="http://sodipodi.sourceforge.net/DTD/sodipodi-0.dtd"
   xmlns:inkscape="http://www.inkscape.org/namespaces/inkscape"
   id="svg3336"
   version="1.1"
   inkscape:version="0.91 r13725"
   xml:space="preserve"
   width="1080"
   height="1080"
   viewBox="0 0 1080 1080"
   sodipodi:docname="11x11 top-midplate.svg"><metadata
     id="metadata3342"><rdf:RDF><cc:Work
         rdf:about=""><dc:format>image/svg+xml</dc:format><dc:type
           rdf:resource="http://purl.org/dc/dcmitype/StillImage" /><dc:title></dc:title></cc:Work></rdf:RDF></metadata><defs
     id="defs3340" /><sodipodi:namedview
     pagecolor="#ffffff"
     bordercolor="#666666"
     borderopacity="1"
     objecttolerance="10"
     gridtolerance="10"
     guidetolerance="10"
     inkscape:pageopacity="0"
     inkscape:pageshadow="2"
     inkscape:window-width="1920"
     inkscape:window-height="1001"
     id="namedview3338"
     showgrid="false"
     inkscape:zoom="0.74814815"
     inkscape:cx="540"
     inkscape:cy="667.11303"
     inkscape:window-x="-9"
     inkscape:window-y="-9"
     inkscape:window-maximized="1"
     inkscape:current-layer="g3344" /><g
     id="g3344"
     inkscape:groupmode="layer"
     inkscape:label="11x11 top-midplate"
     transform="matrix(1.25,0,0,-1.25,0,1080)"><g
       id="g3346"
       transform="translate(195,731.3)"><path
         d="m 0,0 5.3,4.7 5.7,4.2 6,3.6 6.4,3.1 6.7,2.3 6.8,1.8 7,1 L 51,21 M 0,0 -68.3,-68.4 m -21.1,-50.9 0.3,7 1.1,7 1.7,6.9 2.4,6.6 3,6.4 3.6,6.1 4.2,5.6 4.8,5.3 m -21.1,-50.9 0,-367.3 m 21.1,-50.9 -4.8,5.3 -4.2,5.6 -3.6,6.1 -3,6.4 -2.4,6.6 -1.7,6.9 -1.1,7 -0.3,7 m 21.1,-50.9 68.3,-68.4 m 51,-21.1 -7.1,0.4 -7,1 -6.8,1.7 -6.7,2.4 -6.4,3 -6,3.7 -5.7,4.2 -5.3,4.7 m 51,-21.1 367.2,0 m 50.9,21.1 -5.2,-4.7 -5.7,-4.2 -6.1,-3.7 -6.4,-3 -6.6,-2.4 -6.9,-1.7 -7,-1 -7,-0.4 m 50.9,21.1 68.4,68.4 m 21.1,50.9 -0.4,-7 -1,-7 -1.7,-6.9 -2.4,-6.6 -3,-6.4 -3.7,-6.1 -4.2,-5.6 -4.7,-5.3 m 21.1,50.9 0,367.3 m -21.1,50.9 4.7,-5.3 4.2,-5.6 3.7,-6.1 3,-6.4 2.4,-6.6 1.7,-6.9 1,-7 0.4,-7 M 537.5,-68.4 469.1,0 m -50.9,21 7,-0.3 7,-1 6.9,-1.8 6.6,-2.3 6.4,-3.1 6.1,-3.6 5.7,-4.2 5.2,-4.7 M 418.2,21 51,21 m -161.5,13.9 2.3,0.4 2.1,1.2 1.6,1.7 1,2.2 0.2,2.3 -0.6,2.3 -1.3,2 -1.9,1.5 -2.2,0.7 -2.4,0 -2.2,-0.7 -1.9,-1.5 -1.3,-2 -0.6,-2.3 0.2,-2.3 1,-2.2 1.6,-1.7 2,-1.2 2.4,-0.4 m 0,-675.7 -2.4,-0.4 -2,-1.2 -1.6,-1.7 -1,-2.2 -0.2,-2.3 0.6,-2.3 1.3,-2 1.9,-1.5 2.2,-0.7 2.4,0 2.2,0.7 1.9,1.5 1.3,2 0.6,2.3 -0.2,2.3 -1,2.2 -1.6,1.7 -2.1,1.2 -2.3,0.4 m 50.9,50.9 -2.3,-0.4 -2.1,-1.1 -1.6,-1.8 -1,-2.2 -0.2,-2.3 0.6,-2.3 1.3,-2 1.9,-1.5 2.2,-0.7 2.4,0 2.2,0.7 1.9,1.5 1.3,2 0.6,2.3 -0.2,2.3 -1,2.2 -1.6,1.8 -2.1,1.1 -2.3,0.4 m 588.4,-14.4 2.3,0.4 2.1,1.1 1.6,1.7 0.9,2.2 0.2,2.4 -0.6,2.3 -1.3,1.9 -1.8,1.5 -2.3,0.8 -2.3,0 -2.3,-0.8 -1.8,-1.5 -1.3,-1.9 -0.6,-2.3 0.2,-2.4 0.9,-2.2 1.6,-1.7 2.1,-1.1 2.4,-0.4 m 50.9,-50.9 2.3,0.3 2.1,1.2 1.6,1.7 0.9,2.2 0.2,2.4 -0.5,2.3 -1.3,1.9 -1.9,1.5 -2.3,0.8 -2.3,0 -2.3,-0.8 -1.8,-1.5 -1.3,-1.9 -0.6,-2.3 0.2,-2.4 0.9,-2.2 1.6,-1.7 2.1,-1.2 2.4,-0.3 m 0,704.5 -2.4,-0.4 -2.1,-1.1 -1.6,-1.7 -0.9,-2.2 -0.2,-2.4 0.6,-2.3 1.3,-1.9 1.8,-1.5 2.3,-0.8 2.3,0 2.3,0.8 1.9,1.5 1.3,1.9 0.5,2.3 -0.2,2.4 -0.9,2.2 -1.6,1.7 -2.1,1.1 -2.3,0.4 m -50.9,-50.9 -2.4,-0.4 -2.1,-1.1 -1.6,-1.7 -0.9,-2.2 -0.2,-2.4 0.6,-2.3 1.3,-2 1.8,-1.4 2.3,-0.8 2.3,0 2.3,0.8 1.8,1.4 1.3,2 0.6,2.3 -0.2,2.4 -0.9,2.2 -1.6,1.7 -2.1,1.1 -2.3,0.4 M -59.6,-16 l 2.3,0.4 2.1,1.1 1.6,1.8 1,2.2 0.2,2.3 -0.6,2.3 -1.3,2 -1.9,1.5 -2.2,0.7 -2.4,0 -2.2,-0.7 -1.9,-1.5 -1.3,-2 -0.6,-2.3 0.2,-2.3 1,-2.2 1.6,-1.8 2.1,-1.1 2.3,-0.4 m 294.2,74.1 2.2,0.4 1.9,1.2 1.4,1.8 0.6,2.2 -0.2,2.2 -1,2 -1.7,1.6 -2.1,0.8 -2.3,0 -2,-0.8 -1.7,-1.6 -1,-2 -0.2,-2.2 0.6,-2.2 1.4,-1.8 1.9,-1.2 2.2,-0.4 m 367.2,-480.9 -2.2,-0.4 -1.9,-1.2 -1.4,-1.8 -0.6,-2.2 0.2,-2.2 1,-2 1.7,-1.6 2,-0.8 2.3,0 2.1,0.8 1.7,1.6 1,2 0.2,2.2 -0.6,2.2 -1.4,1.8 -1.9,1.2 -2.2,0.4 m 0,239.7 2.2,0.4 1.9,1.2 1.4,1.8 0.6,2.2 -0.2,2.2 -1,2 -1.7,1.6 -2.1,0.8 -2.3,0 -2,-0.8 -1.7,-1.6 -1,-2 -0.2,-2.2 0.6,-2.2 1.4,-1.8 1.9,-1.2 2.2,-0.4 m 0,-63 2.2,0.4 1.9,1.2 1.4,1.8 0.6,2.2 -0.2,2.2 -1,2 -1.7,1.6 -2.1,0.8 -2.3,0 -2,-0.8 -1.7,-1.6 -1,-2 -0.2,-2.2 0.6,-2.2 1.4,-1.8 1.9,-1.2 2.2,-0.4 m 0,-63 2.2,0.4 1.9,1.2 1.4,1.8 0.6,2.2 -0.2,2.2 -1,2 -1.7,1.6 -2.1,0.8 -2.3,0 -2,-0.8 -1.7,-1.6 -1,-2 -0.2,-2.2 0.6,-2.2 1.4,-1.8 1.9,-1.2 2.2,-0.4 M 297.6,-664 l -2.2,-0.4 -1.9,-1.2 -1.4,-1.8 -0.6,-2.2 0.2,-2.2 1,-2 1.7,-1.6 2,-0.8 2.3,0 2.1,0.8 1.7,1.6 1,2 0.2,2.2 -0.6,2.2 -1.4,1.8 -1.9,1.2 -2.2,0.4 m -430.2,304.2 -2.2,-0.4 -1.9,-1.2 -1.4,-1.8 -0.6,-2.2 0.2,-2.2 1,-2 1.7,-1.6 2,-0.8 2.3,0 2.1,0.8 1.7,1.6 1,2 0.2,2.2 -0.6,2.2 -1.4,1.8 -1.9,1.2 -2.2,0.4 m 0,-63 -2.2,-0.4 -1.9,-1.2 -1.4,-1.8 -0.6,-2.2 0.2,-2.2 1,-2 1.7,-1.6 2,-0.8 2.3,0 2.1,0.8 1.7,1.6 1,2 0.2,2.2 -0.6,2.2 -1.4,1.8 -1.9,1.2 -2.2,0.4 m 734.4,63 -2.2,-0.4 -1.9,-1.2 -1.4,-1.8 -0.6,-2.2 0.2,-2.2 1,-2 1.7,-1.6 2,-0.8 2.3,0 2.1,0.8 1.7,1.6 1,2 0.2,2.2 -0.6,2.2 -1.4,1.8 -1.9,1.2 -2.2,0.4 m -493.2,417.9 2.2,0.4 1.9,1.2 1.4,1.8 0.6,2.2 -0.2,2.2 -1,2 -1.7,1.6 -2.1,0.8 -2.3,0 -2,-0.8 -1.7,-1.6 -1,-2 -0.2,-2.2 0.6,-2.2 1.4,-1.8 1.9,-1.2 2.2,-0.4 m 252,0 2.2,0.4 1.9,1.2 1.4,1.8 0.6,2.2 -0.2,2.2 -1,2 -1.7,1.6 -2.1,0.8 -2.3,0 -2,-0.8 -1.7,-1.6 -1,-2 -0.2,-2.2 0.6,-2.2 1.4,-1.8 1.9,-1.2 2.2,-0.4 m -189,0 2.2,0.4 1.9,1.2 1.4,1.8 0.6,2.2 -0.2,2.2 -1,2 -1.7,1.6 -2.1,0.8 -2.3,0 -2,-0.8 -1.7,-1.6 -1,-2 -0.2,-2.2 0.6,-2.2 1.4,-1.8 1.9,-1.2 2.2,-0.4 m -304.2,-241.2 2.2,0.4 1.9,1.2 1.4,1.8 0.6,2.2 -0.2,2.2 -1,2 -1.7,1.6 -2.1,0.8 -2.3,0 -2,-0.8 -1.7,-1.6 -1,-2 -0.2,-2.2 0.6,-2.2 1.4,-1.8 1.9,-1.2 2.2,-0.4 m 0,-63 2.2,0.4 1.9,1.2 1.4,1.8 0.6,2.2 -0.2,2.2 -1,2 -1.7,1.6 -2.1,0.8 -2.3,0 -2,-0.8 -1.7,-1.6 -1,-2 -0.2,-2.2 0.6,-2.2 1.4,-1.8 1.9,-1.2 2.2,-0.4 m 0,-63 2.2,0.4 1.9,1.2 1.4,1.8 0.6,2.2 -0.2,2.2 -1,2 -1.7,1.6 -2.1,0.8 -2.3,0 -2,-0.8 -1.7,-1.6 -1,-2 -0.2,-2.2 0.6,-2.2 1.4,-1.8 1.9,-1.2 2.2,-0.4 m 430.2,367.2 2.2,0.4 1.9,1.2 1.4,1.8 0.6,2.2 -0.2,2.2 -1,2 -1.7,1.6 -2.1,0.8 -2.3,0 -2,-0.8 -1.7,-1.6 -1,-2 -0.2,-2.2 0.6,-2.2 1.4,-1.8 1.9,-1.2 2.2,-0.4 m -252,0 2.2,0.4 1.9,1.2 1.4,1.8 0.6,2.2 -0.2,2.2 -1,2 -1.7,1.6 -2.1,0.8 -2.3,0 -2,-0.8 -1.7,-1.6 -1,-2 -0.2,-2.2 0.6,-2.2 1.4,-1.8 1.9,-1.2 2.2,-0.4 m 556.2,-543.9 -2.2,-0.4 -1.9,-1.2 -1.4,-1.8 -0.6,-2.2 0.2,-2.2 1,-2 1.7,-1.6 2,-0.8 2.3,0 2.1,0.8 1.7,1.6 1,2 0.2,2.2 -0.6,2.2 -1.4,1.8 -1.9,1.2 -2.2,0.4 M 423.6,-664 l -2.2,-0.4 -1.9,-1.2 -1.4,-1.8 -0.6,-2.2 0.2,-2.2 1,-2 1.7,-1.6 2,-0.8 2.3,0 2.1,0.8 1.7,1.6 1,2 0.2,2.2 -0.6,2.2 -1.4,1.8 -1.9,1.2 -2.2,0.4 m -378,0 -2.2,-0.4 -1.9,-1.2 -1.4,-1.8 -0.6,-2.2 0.2,-2.2 1,-2 1.7,-1.6 2,-0.8 2.3,0 2.1,0.8 1.7,1.6 1,2 0.2,2.2 -0.6,2.2 -1.4,1.8 -1.9,1.2 -2.2,0.4 m -178.2,178.2 -2.2,-0.4 -1.9,-1.2 -1.4,-1.8 -0.6,-2.2 0.2,-2.2 1,-2 1.7,-1.6 2,-0.8 2.3,0 2.1,0.8 1.7,1.6 1,2 0.2,2.2 -0.6,2.2 -1.4,1.8 -1.9,1.2 -2.2,0.4 m 0,441 -2.2,-0.4 -1.9,-1.2 -1.4,-1.8 -0.6,-2.2 0.2,-2.2 1,-2 1.7,-1.6 2,-0.8 2.3,0 2.1,0.8 1.7,1.6 1,2 0.2,2.2 -0.6,2.2 -1.4,1.8 -1.9,1.2 -2.2,0.4 m 734.4,-12.3 2.2,0.4 1.9,1.2 1.4,1.8 0.6,2.2 -0.2,2.2 -1,2 -1.7,1.6 -2.1,0.8 -2.3,0 -2,-0.8 -1.7,-1.6 -1,-2 -0.2,-2.2 0.6,-2.2 1.4,-1.8 1.9,-1.2 2.2,-0.4 m 0,-491.7 -2.2,-0.4 -1.9,-1.2 -1.4,-1.8 -0.6,-2.2 0.2,-2.2 1,-2 1.7,-1.6 2,-0.8 2.3,0 2.1,0.8 1.7,1.6 1,2 0.2,2.2 -0.6,2.2 -1.4,1.8 -1.9,1.2 -2.2,0.4 m -734.4,-12.3 2.2,0.4 1.9,1.2 1.4,1.8 0.6,2.2 -0.2,2.2 -1,2 -1.7,1.6 -2.1,0.8 -2.3,0 -2,-0.8 -1.7,-1.6 -1,-2 -0.2,-2.2 0.6,-2.2 1.4,-1.8 1.9,-1.2 2.2,-0.4 m 0,441 2.2,0.4 1.9,1.2 1.4,1.8 0.6,2.2 -0.2,2.2 -1,2 -1.7,1.6 -2.1,0.8 -2.3,0 -2,-0.8 -1.7,-1.6 -1,-2 -0.2,-2.2 0.6,-2.2 1.4,-1.8 1.9,-1.2 2.2,-0.4 m 734.4,0 2.2,0.4 1.9,1.2 1.4,1.8 0.6,2.2 -0.2,2.2 -1,2 -1.7,1.6 -2.1,0.8 -2.3,0 -2,-0.8 -1.7,-1.6 -1,-2 -0.2,-2.2 0.6,-2.2 1.4,-1.8 1.9,-1.2 2.2,-0.4 m -178.2,178.2 2.2,0.4 1.9,1.2 1.4,1.8 0.6,2.2 -0.2,2.2 -1,2 -1.7,1.6 -2.1,0.8 -2.3,0 -2,-0.8 -1.7,-1.6 -1,-2 -0.2,-2.2 0.6,-2.2 1.4,-1.8 1.9,-1.2 2.2,-0.4 m -252,-722.1 -2.2,-0.4 -1.9,-1.2 -1.4,-1.8 -0.6,-2.2 0.2,-2.2 1,-2 1.7,-1.6 2,-0.8 2.3,0 2.1,0.8 1.7,1.6 1,2 0.2,2.2 -0.6,2.2 -1.4,1.8 -1.9,1.2 -2.2,0.4 m 189,0 -2.2,-0.4 -1.9,-1.2 -1.4,-1.8 -0.6,-2.2 0.2,-2.2 1,-2 1.7,-1.6 2,-0.8 2.3,0 2.1,0.8 1.7,1.6 1,2 0.2,2.2 -0.6,2.2 -1.4,1.8 -1.9,1.2 -2.2,0.4 m -252,0 -2.2,-0.4 -1.9,-1.2 -1.4,-1.8 -0.6,-2.2 0.2,-2.2 1,-2 1.7,-1.6 2,-0.8 2.3,0 2.1,0.8 1.7,1.6 1,2 0.2,2.2 -0.6,2.2 -1.4,1.8 -1.9,1.2 -2.2,0.4 m 126,0 -2.2,-0.4 -1.9,-1.2 -1.4,-1.8 -0.6,-2.2 0.2,-2.2 1,-2 1.7,-1.6 2,-0.8 2.3,0 2.1,0.8 1.7,1.6 1,2 0.2,2.2 -0.6,2.2 -1.4,1.8 -1.9,1.2 -2.2,0.4 m -385.2,193.6 0,19.8 m 0,0 -10.8,0 m 0,295.2 10.8,0 m 0,0 0,19.8 m 0,0 -10.8,0 m 792,0 -10.8,0 m 0,0 0,-19.8 m 0,0 10.8,0 m 0,-295.2 -10.8,0 m 0,0 0,-19.8 m 0,0 10.8,0 m -792,0 10.8,0 m 40.1,-228.6 690.2,0 m -741.1,51 50.9,-51 m -50.9,543.6 0,-295.2 M -110.5,93 -161.4,42.1 M 579.7,93 -110.5,93 M 630.6,42.1 579.7,93 m 50.9,-543.6 0,295.2 m -50.9,-543.6 50.9,51 m -792,690.1 0,-177.7 m 0,-334.8 0,-177.6 m 792,512.4 0,177.7 m 0,-690.1 0,177.6"
         style="fill:none;stroke:#000000;stroke-width:0.70899999;stroke-linecap:round;stroke-linejoin:round;stroke-miterlimit:10;stroke-dasharray:none;stroke-opacity:1"
         id="path3348"
         inkscape:connector-curvature="0" /></g></g></svg>