<?xml version="1.0" encoding="UTF-8" standalone="no"?>
<!-- Created with Inkscape (http://www.inkscape.org/) -->

<svg
   xmlns:dc="http://purl.org/dc/elements/1.1/"
   xmlns:cc="http://creativecommons.org/ns#"
   xmlns:rdf="http://www.w3.org/1999/02/22-rdf-syntax-ns#"
   xmlns:svg="http://www.w3.org/2000/svg"
   xmlns="http://www.w3.org/2000/svg"
   xmlns:sodipodi="http://sodipodi.sourceforge.net/DTD/sodipodi-0.dtd"
   xmlns:inkscape="http://www.inkscape.org/namespaces/inkscape"
   id="svg3354"
   version="1.1"
   inkscape:version="0.91 r13725"
   xml:space="preserve"
   width="1080"
   height="1080"
   viewBox="0 0 1080 1080"
   sodipodi:docname="TopPlate-11x11 - battery centered.svg"><metadata
     id="metadata3360"><rdf:RDF><cc:Work
         rdf:about=""><dc:format>image/svg+xml</dc:format><dc:type
           rdf:resource="http://purl.org/dc/dcmitype/StillImage" /><dc:title></dc:title></cc:Work></rdf:RDF></metadata><defs
     id="defs3358" /><sodipodi:namedview
     pagecolor="#ffffff"
     bordercolor="#666666"
     borderopacity="1"
     objecttolerance="10"
     gridtolerance="10"
     guidetolerance="10"
     inkscape:pageopacity="0"
     inkscape:pageshadow="2"
     inkscape:window-width="1920"
     inkscape:window-height="1001"
     id="namedview3356"
     showgrid="false"
     inkscape:zoom="0.87407407"
     inkscape:cx="540"
     inkscape:cy="173.89831"
     inkscape:window-x="-9"
     inkscape:window-y="-9"
     inkscape:window-maximized="1"
     inkscape:current-layer="g3362" /><g
     id="g3362"
     inkscape:groupmode="layer"
     inkscape:label="TopPlate-11x11 - battery centered"
     transform="matrix(1.25,0,0,-1.25,0,1080)"><g
       id="g3364"
       transform="translate(385.4,540.6)"><path
         d="m 0,0 2.3,0.4 1.9,1.2 1.3,1.8 0.6,2.2 -0.2,2.2 -1,2 -1.6,1.5 -2.1,0.8 -2.3,0 -2.1,-0.8 -1.6,-1.5 -1,-2 L -6,5.6 -5.4,3.4 -4.1,1.6 -2.2,0.4 0,0 m 97.2,-241.2 2.3,0.4 1.9,1.2 1.3,1.8 0.6,2.2 -0.2,2.2 -1,2 -1.6,1.5 -2.1,0.8 -2.3,0 -2.1,-0.8 -1.6,-1.5 -1,-2 -0.2,-2.2 0.6,-2.2 1.3,-1.8 1.9,-1.2 2.2,-0.4 m -97.2,0 2.3,0.4 1.9,1.2 1.3,1.8 0.6,2.2 -0.2,2.2 -1,2 -1.6,1.5 -2.1,0.8 -2.3,0 -2.1,-0.8 -1.6,-1.5 -1,-2 -0.2,-2.2 0.6,-2.2 1.3,-1.8 1.9,-1.2 2.2,-0.4 M 97.2,0 l 2.3,0.4 1.9,1.2 1.3,1.8 0.6,2.2 -0.2,2.2 -1,2 -1.6,1.5 -2.1,0.8 -2.3,0 L 94,11.3 92.4,9.8 91.4,7.8 91.2,5.6 91.8,3.4 93.1,1.6 95,0.4 97.2,0 M -41,-31.7 l 180,0 m 0,0 2.8,0.4 2.5,1.3 2,2 1.3,2.5 0.4,2.8 -0.4,2.8 -1.3,2.5 -2,2 -2.5,1.3 -2.8,0.4 m 0,0 -180,0 m 0,0 -2.8,-0.4 -2.5,-1.3 -2,-2 -1.3,-2.5 -0.4,-2.8 0.4,-2.8 1.3,-2.5 2,-2 2.5,-1.3 2.8,-0.4 m 0,-266.5 180,0 m 0,0 2.8,0.5 2.5,1.3 2,1.9 1.3,2.6 0.4,2.7 -0.4,2.8 -1.3,2.5 -2,2 -2.5,1.3 -2.8,0.4 m 0,0 -180,0 m 0,0 -2.8,-0.4 -2.5,-1.3 -2,-2 -1.3,-2.5 -0.4,-2.8 0.4,-2.7 1.3,-2.6 2,-1.9 2.5,-1.3 2.8,-0.5 m 0,82.2 180,0 m 0,0 2.8,0.5 2.5,1.3 2,2 1.3,2.5 0.4,2.7 -0.4,2.8 -1.3,2.5 -2,2 -2.5,1.3 -2.8,0.4 m 0,0 -180,0 m 0,0 -2.8,-0.4 -2.5,-1.3 -2,-2 -1.3,-2.5 -0.4,-2.8 0.4,-2.7 1.3,-2.5 2,-2 2.5,-1.3 2.8,-0.5 m -82.8,325.8 1.7,0.3 1.4,1 0.9,1.4 0.3,1.6 -0.3,1.7 -0.9,1.4 -1.4,0.9 -1.7,0.3 -1.6,-0.3 -1.4,-0.9 -1,-1.4 -0.3,-1.7 0.3,-1.6 1,-1.4 1.4,-1 1.6,-0.3 m -85,8.6 -1.6,-0.3 -1.4,-0.9 -0.9,-1.4 -0.4,-1.7 0.4,-1.6 0.9,-1.4 1.4,-1 1.6,-0.3 1.7,0.3 1.4,1 0.9,1.4 0.4,1.6 -0.4,1.7 -0.9,1.4 -1.4,0.9 -1.7,0.3 m 0,-84.9 -1.6,-0.3 -1.4,-1 -0.9,-1.4 -0.4,-1.6 0.4,-1.7 0.9,-1.4 1.4,-0.9 1.6,-0.4 1.7,0.4 1.4,0.9 0.9,1.4 0.4,1.7 -0.4,1.6 -0.9,1.4 -1.4,1 -1.7,0.3 m 85,-8.7 1.7,0.4 1.4,0.9 0.9,1.4 0.3,1.7 -0.3,1.6 -0.9,1.4 -1.4,1 -1.7,0.3 -1.6,-0.3 -1.4,-1 -1,-1.4 -0.3,-1.6 0.3,-1.7 1,-1.4 1.4,-0.9 1.6,-0.4 m 104.4,-414 2.2,-0.5 1.9,-1.1 1.4,-1.8 0.6,-2.2 -0.2,-2.2 -1,-2 -1.7,-1.6 -2.1,-0.8 -2.2,0 -2.1,0.8 -1.7,1.6 -1,2 -0.2,2.2 0.6,2.2 1.4,1.8 1.9,1.1 2.2,0.5 m 136.8,68.4 2.2,-0.5 1.9,-1.1 1.4,-1.8 0.6,-2.2 -0.2,-2.2 -1,-2 -1.7,-1.6 -2.1,-0.8 -2.2,0 -2.1,0.8 -1.7,1.6 -1,2 -0.2,2.2 0.6,2.2 1.4,1.8 1.9,1.1 2.2,0.5 m -136.8,0 2.2,-0.5 1.9,-1.1 1.4,-1.8 0.6,-2.2 -0.2,-2.2 -1,-2 -1.7,-1.6 -2.1,-0.8 -2.2,0 -2.1,0.8 -1.7,1.6 -1,2 -0.2,2.2 0.6,2.2 1.4,1.8 1.9,1.1 2.2,0.5 m 136.8,-68.4 2.2,-0.5 1.9,-1.1 1.4,-1.8 0.6,-2.2 -0.2,-2.2 -1,-2 -1.7,-1.6 -2.1,-0.8 -2.2,0 -2.1,0.8 -1.7,1.6 -1,2 -0.2,2.2 0.6,2.2 1.4,1.8 1.9,1.1 2.2,0.5 m 104.4,452.9 2.1,-0.4 1.8,-1.1 1.3,-1.7 0.5,-2 -0.2,-2.1 -0.9,-1.9 -1.6,-1.4 -1.9,-0.8 -2.2,0 -1.9,0.8 -1.6,1.4 -0.9,1.9 -0.2,2.1 0.6,2 1.2,1.7 1.8,1.1 2.1,0.4 m 77.8,70.6 -2.1,0.4 -1.8,1.1 -1.3,1.7 -0.6,2 0.2,2.1 1,1.9 1.5,1.4 2,0.8 2.1,0 2,-0.8 1.6,-1.4 0.9,-1.9 0.2,-2.1 -0.6,-2 -1.3,-1.7 -1.8,-1.1 -2,-0.4 m -77.8,11.5 2.1,-0.4 1.8,-1.1 1.3,-1.7 0.5,-2 -0.2,-2.1 -0.9,-1.9 -1.6,-1.5 -1.9,-0.7 -2.2,0 -1.9,0.7 -1.6,1.5 -0.9,1.9 -0.2,2.1 0.6,2 1.2,1.7 1.8,1.1 2.1,0.4 m 77.8,-93.6 -2.1,0.4 -1.8,1.1 -1.3,1.7 -0.6,2 0.2,2.1 1,1.9 1.5,1.5 2,0.7 2.1,0 2,-0.7 1.6,-1.5 0.9,-1.9 0.2,-2.1 -0.6,-2 -1.3,-1.7 -1.8,-1.1 -2,-0.4 m -293.1,13 2.3,-0.4 2.1,-1.2 1.6,-1.7 1,-2.2 0.2,-2.3 -0.6,-2.3 -1.3,-2 -1.9,-1.5 -2.2,-0.7 -2.4,0 -2.2,0.7 -1.9,1.5 -1.3,2 -0.6,2.3 0.2,2.3 1,2.2 1.6,1.7 2.1,1.2 2.3,0.4 m 0,85 2.3,-0.4 2.1,-1.1 1.6,-1.8 1,-2.1 0.2,-2.4 -0.6,-2.3 -1.3,-2 -1.9,-1.4 -2.2,-0.8 -2.4,0 -2.2,0.8 -1.9,1.4 -1.3,2 -0.6,2.3 0.2,2.4 1,2.1 1.6,1.8 2.1,1.1 2.3,0.4 m 85,-14.4 -2.3,0.4 -2.1,1.1 -1.6,1.8 -1,2.1 -0.1,2.4 0.5,2.3 1.3,2 1.9,1.4 2.2,0.8 2.4,0 2.3,-0.8 1.8,-1.4 1.3,-2 0.6,-2.3 -0.2,-2.4 -0.9,-2.1 -1.6,-1.8 -2.1,-1.1 -2.4,-0.4 m 0,-85 -2.3,0.4 -2.1,1.1 -1.6,1.7 -1,2.2 -0.1,2.4 0.5,2.3 1.3,1.9 1.9,1.5 2.2,0.8 2.4,0 2.3,-0.8 1.8,-1.5 1.3,-1.9 0.6,-2.3 L 98.5,56.2 97.6,54 96,52.3 93.9,51.2 91.5,50.8 m -64.1,77.4 2.2,-0.4 1.9,-1.2 1.4,-1.8 0.6,-2.1 -0.2,-2.3 -1,-2 -1.7,-1.5 -2.1,-0.8 -2.2,0 -2.1,0.8 -1.7,1.5 -1,2 -0.2,2.3 0.6,2.1 1.4,1.8 1.9,1.2 2.2,0.4 m 0,-55.4 -2.2,0.4 -1.9,1.2 -1.4,1.8 -0.6,2.1 0.2,2.3 1,2 1.7,1.5 2.1,0.8 2.2,0 2.1,-0.8 1.7,-1.5 1,-2 0.2,-2.3 -0.6,-2.1 -1.4,-1.8 -1.9,-1.2 -2.2,-0.4 m 43.2,12.2 2.2,-0.4 1.9,-1.2 1.4,-1.8 0.6,-2.1 -0.2,-2.3 -1,-2 -1.7,-1.5 -2.1,-0.8 -2.2,0 -2.1,0.8 -1.7,1.5 -1,2 -0.2,2.3 0.6,2.1 1.4,1.8 1.9,1.2 2.2,0.4 m 0,31 -2.2,0.4 -1.9,1.2 -1.4,1.8 -0.6,2.1 0.2,2.3 1,2 1.7,1.5 2.1,0.8 2.2,0 2.1,-0.8 1.7,-1.5 1,-2 0.2,-2.3 -0.6,-2.1 -1.4,-1.8 -1.9,-1.2 -2.2,-0.4 m -366.7,-568.7 2.4,-0.4 2,-1.1 1.6,-1.8 1,-2.2 0.2,-2.3 -0.6,-2.3 -1.3,-2 -1.9,-1.5 -2.2,-0.7 -2.4,0 -2.2,0.7 -1.9,1.5 -1.3,2 -0.6,2.3 0.2,2.3 1,2.2 1.6,1.8 2.1,1.1 2.3,0.4 m 639.3,639.2 2.3,-0.3 2.1,-1.2 1.6,-1.7 1,-2.2 0.2,-2.4 -0.6,-2.2 -1.3,-2 -1.9,-1.5 -2.2,-0.8 -2.4,0 -2.2,0.8 -1.9,1.5 -1.3,2 -0.6,2.2 0.2,2.4 1,2.2 1.6,1.7 2,1.2 2.4,0.3 m 50.9,51 2.3,-0.4 2.1,-1.2 1.6,-1.7 1,-2.2 0.2,-2.3 -0.6,-2.3 -1.3,-2 -1.9,-1.5 -2.2,-0.7 -2.4,0 -2.2,0.7 -1.9,1.5 -1.3,2 -0.6,2.3 0.2,2.3 1,2.2 1.6,1.7 2.1,1.2 2.3,0.4 m -639.3,-65.4 -2.3,0.4 -2.1,1.2 -1.6,1.7 -0.9,2.2 -0.2,2.3 0.5,2.3 1.3,2 1.9,1.5 2.2,0.7 2.4,0 2.3,-0.7 1.8,-1.5 1.3,-2 0.6,-2.3 -0.2,-2.3 -0.9,-2.2 -1.6,-1.7 -2.1,-1.2 -2.4,-0.4 m -50.9,51 -2.3,0.3 -2.1,1.2 -1.6,1.7 -1,2.2 -0.2,2.3 0.6,2.3 1.3,2 1.9,1.5 2.2,0.8 2.4,0 2.2,-0.8 1.9,-1.5 1.3,-2 0.6,-2.3 -0.2,-2.3 -1,-2.2 -1.6,-1.7 -2,-1.2 -2.4,-0.3 m 690.2,-690.2 -2.3,0.4 -2.1,1.1 -1.6,1.7 -1,2.2 -0.2,2.4 0.6,2.3 1.3,2 1.9,1.4 2.2,0.8 2.4,0 2.2,-0.8 1.9,-1.4 1.3,-2 0.6,-2.3 -0.2,-2.4 -1,-2.2 -1.6,-1.7 -2.1,-1.1 -2.3,-0.4 m -50.9,50.9 -2.4,0.4 -2,1.1 -1.6,1.8 -1,2.1 -0.2,2.4 0.6,2.3 1.3,2 1.9,1.4 2.2,0.8 2.4,0 2.2,-0.8 1.9,-1.4 1.3,-2 0.6,-2.3 -0.2,-2.4 -1,-2.1 -1.6,-1.8 -2.1,-1.1 -2.3,-0.4 m -588.4,14.4 2.4,-0.4 2.1,-1.1 1.6,-1.8 0.9,-2.1 0.2,-2.4 -0.6,-2.3 -1.3,-2 -1.8,-1.4 -2.3,-0.8 -2.4,0 -2.2,0.8 -1.9,1.4 -1.3,2 -0.5,2.3 0.2,2.4 0.9,2.1 1.6,1.8 2.1,1.1 2.3,0.4 m 231.2,-74.1 2.2,-0.4 1.9,-1.2 1.4,-1.8 0.6,-2.2 -0.2,-2.2 -1,-2 -1.7,-1.5 -2.1,-0.8 -2.2,0 -2.1,0.8 -1.7,1.5 -1,2 -0.2,2.2 0.6,2.2 1.4,1.8 1.9,1.2 2.2,0.4 m -304.2,115.2 2.2,-0.4 1.9,-1.2 1.4,-1.8 0.6,-2.2 -0.2,-2.2 -1,-2 -1.7,-1.5 -2.1,-0.8 -2.2,0 -2.1,0.8 -1.7,1.5 -1,2 -0.2,2.2 0.6,2.2 1.4,1.8 1.9,1.2 2.2,0.4 m 0,126 2.2,-0.4 1.9,-1.2 1.4,-1.8 0.6,-2.2 -0.2,-2.2 -1,-2 -1.7,-1.5 -2.1,-0.8 -2.2,0 -2.1,0.8 -1.7,1.5 -1,2 -0.2,2.2 0.6,2.2 1.4,1.8 1.9,1.2 2.2,0.4 m 0,126 2.2,-0.4 1.9,-1.2 1.4,-1.8 0.6,-2.2 -0.2,-2.2 -1,-2 -1.7,-1.5 -2.1,-0.8 -2.2,0 -2.1,0.8 -1.7,1.5 -1,2 -0.2,2.2 0.6,2.2 1.4,1.8 1.9,1.2 2.2,0.4 m 178.2,-367.2 2.2,-0.4 1.9,-1.2 1.4,-1.8 0.6,-2.2 -0.2,-2.2 -1,-2 -1.7,-1.5 -2.1,-0.8 -2.2,0 -2.1,0.8 -1.7,1.5 -1,2 -0.2,2.2 0.6,2.2 1.4,1.8 1.9,1.2 2.2,0.4 m 378,-12.3 -2.2,0.5 -1.9,1.1 -1.4,1.8 -0.6,2.2 0.2,2.2 1,2.1 1.7,1.5 2.1,0.8 2.2,0 2.1,-0.8 1.7,-1.5 1,-2.1 0.2,-2.2 -0.6,-2.2 -1.4,-1.8 -1.9,-1.1 -2.2,-0.5 m 178.2,367.2 -2.2,0.5 -1.9,1.1 -1.4,1.8 -0.6,2.2 0.2,2.2 1,2.1 1.7,1.5 2.1,0.8 2.2,0 2.1,-0.8 1.7,-1.5 1,-2.1 0.2,-2.2 -0.6,-2.2 -1.4,-1.8 -1.9,-1.1 -2.2,-0.5 m 0,-126 -2.2,0.5 -1.9,1.1 -1.4,1.8 -0.6,2.2 0.2,2.2 1,2.1 1.7,1.5 2.1,0.8 2.2,0 2.1,-0.8 1.7,-1.5 1,-2.1 0.2,-2.2 -0.6,-2.2 -1.4,-1.8 -1.9,-1.1 -2.2,-0.5 m 0,-126 -2.2,0.5 -1.9,1.1 -1.4,1.8 -0.6,2.2 0.2,2.2 1,2.1 1.7,1.5 2.1,0.8 2.2,0 2.1,-0.8 1.7,-1.5 1,-2.1 0.2,-2.2 -0.6,-2.2 -1.4,-1.8 -1.9,-1.1 -2.2,-0.5 m 0,516.3 2.2,-0.4 1.9,-1.2 1.4,-1.8 0.6,-2.2 -0.2,-2.2 -1,-2 -1.7,-1.5 -2.1,-0.8 -2.2,0 -2.1,0.8 -1.7,1.5 -1,2 -0.2,2.2 0.6,2.2 1.4,1.8 1.9,1.2 2.2,0.4 m -734.4,-12.3 -2.2,0.5 -1.9,1.1 -1.4,1.8 -0.6,2.2 0.2,2.2 1,2.1 1.7,1.5 2.1,0.8 2.2,0 2.1,-0.8 1.7,-1.5 1,-2.1 0.2,-2.2 -0.6,-2.2 -1.4,-1.8 -1.9,-1.1 -2.2,-0.5 m 0,-126 -2.2,0.5 -1.9,1.1 -1.4,1.8 -0.6,2.2 0.2,2.2 1,2.1 1.7,1.5 2.1,0.8 2.2,0 2.1,-0.8 1.7,-1.5 1,-2.1 0.2,-2.2 -0.6,-2.2 -1.4,-1.8 -1.9,-1.1 -2.2,-0.5 m 178.2,241.2 -2.2,0.5 -1.9,1.1 -1.4,1.8 -0.6,2.2 0.2,2.2 1,2.1 1.7,1.5 2.1,0.8 2.2,0 2.1,-0.8 1.7,-1.5 1,-2.1 0.2,-2.2 -0.6,-2.2 -1.4,-1.8 -1.9,-1.1 -2.2,-0.5 m 126,0 -2.2,0.5 -1.9,1.1 -1.4,1.8 -0.6,2.2 0.2,2.2 1,2.1 1.7,1.5 2.1,0.8 2.2,0 2.1,-0.8 1.7,-1.5 1,-2.1 0.2,-2.2 -0.6,-2.2 -1.4,-1.8 -1.9,-1.1 -2.2,-0.5 m 430.2,-228.9 2.2,-0.4 1.9,-1.2 1.4,-1.8 0.6,-2.2 -0.2,-2.2 -1,-2 -1.7,-1.5 -2.1,-0.8 -2.2,0 -2.1,0.8 -1.7,1.5 -1,2 -0.2,2.2 0.6,2.2 1.4,1.8 1.9,1.2 2.2,0.4 M 238,258.5 l 2.2,-0.4 1.9,-1.2 1.4,-1.8 0.6,-2.2 -0.2,-2.2 -1,-2 -1.7,-1.5 -2.1,-0.8 -2.2,0 -2.1,0.8 -1.7,1.5 -1,2 -0.2,2.2 0.6,2.2 1.4,1.8 1.9,1.2 2.2,0.4 m -126,0 2.2,-0.4 1.9,-1.2 1.4,-1.8 0.6,-2.2 -0.2,-2.2 -1,-2 -1.7,-1.5 -2.1,-0.8 -2.2,0 -2.1,0.8 -1.7,1.5 -1,2 -0.2,2.2 0.6,2.2 1.4,1.8 1.9,1.2 2.2,0.4 m 0,-746.7 -2.2,0.5 -1.9,1.1 -1.4,1.8 -0.6,2.2 0.2,2.2 1,2.1 1.7,1.5 2.1,0.8 2.2,0 2.1,-0.8 1.7,-1.5 1,-2.1 0.2,-2.2 -0.6,-2.2 -1.4,-1.8 -1.9,-1.1 -2.2,-0.5 m -333.7,138.3 2.2,0.4 1.9,1.2 1.4,1.8 0.6,2.1 -0.2,2.3 -1,2 -1.7,1.5 -2.1,0.8 -2.2,0 -2.1,-0.8 -1.7,-1.5 -1,-2 -0.2,-2.3 0.6,-2.1 1.4,-1.8 1.9,-1.2 2.2,-0.4 m 14.4,293 2.2,0.4 1.9,1.2 1.4,1.8 0.6,2.2 -0.2,2.2 -1,2 -1.7,1.6 -2.1,0.8 -2.2,0 -2.1,-0.8 -1.7,-1.6 -1,-2 -0.2,-2.2 0.6,-2.2 1.4,-1.8 1.9,-1.2 2.2,-0.4 m -85.7,-132.7 2.2,0.4 1.9,1.2 1.4,1.8 0.6,2.2 -0.2,2.2 -1,2 -1.7,1.5 -2.1,0.8 -2.2,0 -2.1,-0.8 -1.7,-1.5 -1,-2 -0.2,-2.2 0.6,-2.2 1.4,-1.8 1.9,-1.2 2.2,-0.4 m 206.3,347.5 2.3,0.4 1.9,1.2 1.4,1.9 0.7,2.2 -0.3,2.3 -1,2.1 -1.7,1.5 -2.2,0.9 -2.3,0 -2.1,-0.9 -1.7,-1.5 -1.1,-2.1 -0.2,-2.3 0.6,-2.2 1.4,-1.9 2,-1.2 2.3,-0.4 m 0,-338.4 2.3,0.4 1.9,1.2 1.4,1.9 0.7,2.2 -0.3,2.3 -1,2.1 -1.7,1.5 -2.2,0.9 -2.3,0 -2.1,-0.9 -1.7,-1.5 -1.1,-2.1 -0.2,-2.3 0.6,-2.2 1.4,-1.9 2,-1.2 2.3,-0.4 m 271.4,0 2.3,0.4 2,1.2 1.4,1.9 0.6,2.2 -0.2,2.3 -1,2.1 -1.8,1.5 -2.1,0.9 -2.3,0 -2.2,-0.9 -1.7,-1.5 -1,-2.1 -0.2,-2.3 0.6,-2.2 1.4,-1.9 2,-1.2 2.2,-0.4 m 0,-219.6 2.3,0.4 2,1.2 1.4,1.9 0.6,2.2 -0.2,2.3 -1,2.1 -1.8,1.5 -2.1,0.9 -2.3,0 -2.2,-0.9 -1.7,-1.5 -1,-2.1 -0.2,-2.3 0.6,-2.2 1.4,-1.9 2,-1.2 2.2,-0.4 m 0,118.8 2.3,0.4 2,1.2 1.4,1.9 0.6,2.2 -0.2,2.3 -1,2.1 -1.8,1.5 -2.1,0.9 -2.3,0 -2.2,-0.9 -1.7,-1.5 -1,-2.1 -0.2,-2.3 0.6,-2.2 1.4,-1.9 2,-1.2 2.2,-0.4 m -271.4,0 2.3,0.4 1.9,1.2 1.4,1.9 0.7,2.2 -0.3,2.3 -1,2.1 -1.7,1.5 -2.2,0.9 -2.3,0 -2.1,-0.9 -1.7,-1.5 -1.1,-2.1 -0.2,-2.3 0.6,-2.2 1.4,-1.9 2,-1.2 2.3,-0.4 m 0,-118.8 2.3,0.4 1.9,1.2 1.4,1.9 0.7,2.2 -0.3,2.3 -1,2.1 -1.7,1.5 -2.2,0.9 -2.3,0 -2.1,-0.9 -1.7,-1.5 -1.1,-2.1 -0.2,-2.3 0.6,-2.2 1.4,-1.9 2,-1.2 2.3,-0.4 m 271.4,558 2.3,0.4 2,1.2 1.4,1.9 0.6,2.2 -0.2,2.3 -1,2.1 -1.8,1.5 -2.1,0.9 -2.3,0 -2.2,-0.9 -1.7,-1.5 -1,-2.1 -0.2,-2.3 0.6,-2.2 1.4,-1.9 2,-1.2 2.2,-0.4 m 0,-118.8 2.3,0.4 2,1.2 1.4,1.9 0.6,2.2 -0.2,2.3 -1,2.1 -1.8,1.5 -2.1,0.9 -2.3,0 -2.2,-0.9 -1.7,-1.5 -1,-2.1 -0.2,-2.3 0.6,-2.2 1.4,-1.9 2,-1.2 2.2,-0.4 m -271.4,0 2.3,0.4 1.9,1.2 1.4,1.9 0.7,2.2 -0.3,2.3 -1,2.1 -1.7,1.5 -2.2,0.9 -2.3,0 -2.1,-0.9 -1.7,-1.5 -1.1,-2.1 -0.2,-2.3 0.6,-2.2 1.4,-1.9 2,-1.2 2.3,-0.4 m 271.4,-100.8 2.3,0.4 2,1.2 1.4,1.9 0.6,2.2 -0.2,2.3 -1,2.1 -1.8,1.5 -2.1,0.9 -2.3,0 -2.2,-0.9 -1.7,-1.5 -1,-2.1 -0.2,-2.3 0.6,-2.2 1.4,-1.9 2,-1.2 2.2,-0.4 m -271.4,0 2.3,0.4 1.9,1.2 1.4,1.9 0.7,2.2 -0.3,2.3 -1,2.1 -1.7,1.5 -2.2,0.9 -2.3,0 -2.1,-0.9 -1.7,-1.5 -1.1,-2.1 -0.2,-2.3 0.6,-2.2 1.4,-1.9 2,-1.2 2.3,-0.4 m 453.5,-269.1 0,36 m 0,0 -0.4,3 -1.2,2.8 -1.9,2.5 -2.4,1.9 -2.8,1.1 -3.1,0.4 -3,-0.4 -2.9,-1.1 -2.4,-1.9 -1.9,-2.5 -1.2,-2.8 -0.4,-3 m 0,0 0,-36 m 0,0 0.4,-3.1 1.2,-2.8 1.9,-2.4 2.4,-1.9 2.9,-1.2 3,-0.4 3.1,0.4 2.8,1.2 2.4,1.9 1.9,2.4 1.2,2.8 0.4,3.1 m 0.9,360 0,36 m 0,0 -0.4,3.3 -1.3,3 -2,2.7 -2.6,2 -3.1,1.3 -3.3,0.4 -3.3,-0.4 -3.1,-1.3 -2.6,-2 -2,-2.7 -1.3,-3 -0.4,-3.3 m 0,0 0,-36 m 0,0 0.4,-3.3 1.3,-3.1 2,-2.6 2.6,-2.1 3.1,-1.2 3.3,-0.5 3.3,0.5 3.1,1.2 2.6,2.1 2,2.6 1.3,3.1 0.4,3.3 m -0.9,-180 0,36 m 0,0 -0.4,3 -1.2,2.8 -1.9,2.5 -2.4,1.9 -2.8,1.1 -3.1,0.4 -3,-0.4 -2.9,-1.1 -2.4,-1.9 -1.9,-2.5 -1.2,-2.8 -0.4,-3 m 0,0 0,-36 m 0,0 0.4,-3.1 1.2,-2.8 1.9,-2.4 2.4,-1.9 2.9,-1.2 3,-0.4 3.1,0.4 2.8,1.2 2.4,1.9 1.9,2.4 1.2,2.8 0.4,3.1 m -641.8,18 3.8,0.4 3.5,1.1 3.3,1.9 2.8,2.5 2.2,3.1 1.5,3.4 0.8,3.7 0,3.7 -0.8,3.7 -1.5,3.5 -2.2,3 -2.8,2.5 -3.3,1.9 -3.5,1.2 -3.8,0.4 -3.7,-0.4 -3.6,-1.2 -3.3,-1.9 -2.8,-2.5 -2.2,-3 -1.5,-3.5 -0.8,-3.7 0,-3.7 0.8,-3.7 1.5,-3.4 2.2,-3.1 2.8,-2.5 3.3,-1.9 3.6,-1.1 3.7,-0.4 m -72,363.1 50.9,50.9 m 0,0 690.2,0 m 50.9,-50.9 -50.9,50.9 m 50.9,-50.9 0,-690.2 m 0,0 -50.9,-50.9 m -690.2,0 690.2,0 m -741.1,50.9 50.9,-50.9 m -50.9,741.1 0,-690.2"
         style="fill:none;stroke:#000000;stroke-width:0.70899999;stroke-linecap:round;stroke-linejoin:round;stroke-miterlimit:10;stroke-dasharray:none;stroke-opacity:1"
         id="path3366"
         inkscape:connector-curvature="0" /></g></g></svg>